<?xml version="1.0" standalone="no"?><!DOCTYPE svg PUBLIC "-//W3C//DTD SVG 1.1//EN" "http://www.w3.org/Graphics/SVG/1.1/DTD/svg11.dtd"><svg class="icon" height="512" viewBox="0 0 1024 1024" version="1.1" xmlns="http://www.w3.org/2000/svg"><path d="M253.36601 185.087439 131.137201 185.087439c-14.211676 0-25.732058-11.523451-25.732058-25.733081 0-14.2127 11.519358-25.733081 25.732058-25.733081l122.228809 0c14.2127 0 25.733081 11.519358 25.733081 25.733081C279.099091 173.563988 267.57871 185.087439 253.36601 185.087439L253.36601 185.087439zM806.610366 725.464743 388.460848 725.464743c-14.210653 0-25.732058-11.522428-25.732058-25.731034 0-14.213723 11.521404-25.733081 25.732058-25.733081L806.611389 674.000628c14.211676 0 25.733081 11.520381 25.733081 25.733081C832.34447 713.943338 820.822043 725.464743 806.610366 725.464743L806.610366 725.464743zM903.108141 288.017716 291.96512 288.017716c-14.213723 0-25.734104-11.523451-25.734104-25.733081 0-14.213723 11.519358-25.733081 25.734104-25.733081l611.141998 0c14.213723 0 25.733081 11.518335 25.733081 25.733081C928.840198 276.495288 917.32084 288.017716 903.108141 288.017716L903.108141 288.017716zM862.900394 442.409039 332.171843 442.409039c-14.214746 0-25.733081-11.520381-25.733081-25.733081 0-14.20963 11.518335-25.732058 25.733081-25.732058l530.72855 0c14.213723 0 25.733081 11.522428 25.733081 25.732058C888.633475 430.888657 877.113093 442.409039 862.900394 442.409039L862.900394 442.409039zM825.910944 596.802408 372.377544 596.802408c-14.211676 0-25.732058-11.518335-25.732058-25.732058 0-14.211676 11.521404-25.732058 25.732058-25.732058L825.910944 545.338293c14.214746 0 25.732058 11.521404 25.732058 25.732058C851.644025 585.284073 840.125691 596.802408 825.910944 596.802408L825.910944 596.802408zM591.102081 593.58718c-14.210653 0-25.732058-11.521404-25.732058-25.734104L565.370023 291.232944c0-14.2127 11.521404-25.734104 25.732058-25.734104 14.21577 0 25.733081 11.521404 25.733081 25.734104l0 276.621155C616.836185 582.066799 605.318874 593.58718 591.102081 593.58718L591.102081 593.58718zM768.211824 272.762267 735.286947 547.419697c-1.695618 14.108323-14.503319 24.175609-28.615735 22.485107-14.108323-1.691525-24.178679-14.502295-22.488177-28.608571l32.927947-274.659477c1.692548-14.109346 14.506389-24.175609 28.614711-22.484084C759.83811 245.844198 769.906419 258.651898 768.211824 272.762267L768.211824 272.762267zM927.37687 269.225721l-74.14979 299.165614c-3.399423 13.799284-17.3389 22.234397-31.140231 18.833951-13.798261-3.396353-22.233374-17.334807-18.835997-31.135114L877.403712 256.924557c3.396353-13.798261 17.336854-22.23235 31.135114-18.837021C922.339134 241.484913 930.7722 255.422344 927.37687 269.225721L927.37687 269.225721zM476.377176 573.857836c-14.097066 1.808182-26.988678-8.15575-28.794813-22.251793l-33.127492-258.424724c-1.809205-14.096043 8.154727-26.989701 22.252817-28.79379 14.096043-1.808182 26.986631 8.154727 28.792767 22.251793l33.125445 258.424724C500.437152 559.159066 490.472196 572.051701 476.377176 573.857836L476.377176 573.857836zM393.244804 719.426213c-13.827937 3.431146-27.826765-4.967128-31.268144-18.764366l-132.190695-529.828041c-3.440355-13.796214 4.977361-27.760251 18.807345-31.193443 13.826913-3.433192 27.824719 4.968152 31.268144 18.763342l132.187625 529.829064C415.493527 702.028984 407.073764 715.995067 393.244804 719.426213L393.244804 719.426213zM433.491437 854.125031c-28.42233 0-51.464115-23.039739-51.464115-51.461045 0-28.423353 23.042809-51.466162 51.464115-51.466162 28.424376 0 51.464115 23.042809 51.464115 51.466162C484.956575 831.085292 461.915813 854.125031 433.491437 854.125031L433.491437 854.125031zM748.714771 854.125031c-28.423353 0-51.464115-23.039739-51.464115-51.461045 0-28.423353 23.040762-51.466162 51.464115-51.466162 28.420283 0 51.463092 23.042809 51.463092 51.466162C800.177863 831.085292 777.135054 854.125031 748.714771 854.125031L748.714771 854.125031z" /></svg>